# xmcd CD database file
#
# Track frame offsets:
#	150
#	18285
#	29033
#	55850
#	66850
#	79745
#	92945
#	106643
#	128905
#	142778
#	160763
#	169890
#	186638
#	197058
#
# Disc length: 2959 seconds
#
# Revision: 0
# Processed by: cddbd v1.5.1PL0 Copyright (c) Steve Scherf et al.
# Submitted via: CDex 1.50beta9
#
DISCID=bd0b8d0e
DTITLE=Sean Wilson - 20 Lovely Hits
DYEAR=1900
DGENRE=Country
TTITLE0=For These Are My Mountain
TTITLE1=I Love You Sill
TTITLE2=Medley - Sweet Rosie O'Grary-o' Brien Has No Place To Go-Old Mud Cabin-Where The Blarney Roses Grow-Cliffs Of Dooneen
TTITLE3=Aul Lammas Fair
TTITLE4=Camden Town
TTITLE5=Give My Love To Rose
TTITLE6=Your Lovely Irish Eyes
TTITLE7=Medley - Instrumental -Send Me The Illow-Plese Help Me I'm Fallin-Please Release Me
TTITLE8=Moon Behind The Hill
TTITLE9=Bannks Of The Ohio
TTITLE10=Murshin Durkin
TTITLE11=Any Dream Will Do
TTITLE12=She's My Girl
TTITLE13=Galway Bay
EXTD=
EXTT0=
EXTT1=
EXTT2=
EXTT3=
EXTT4=
EXTT5=
EXTT6=
EXTT7=
EXTT8=
EXTT9=
EXTT10=
EXTT11=
EXTT12=
EXTT13=
PLAYORDER=
